<?xml version="1.0" standalone="no"?>
<!DOCTYPE svg PUBLIC "-//W3C//DTD SVG 20010904//EN"
 "http://www.w3.org/TR/2001/REC-SVG-20010904/DTD/svg10.dtd">
<svg version="1.0" xmlns="http://www.w3.org/2000/svg"
 width="1280.000000pt" height="1280.000000pt" viewBox="0 0 1280.000000 1280.000000"
 preserveAspectRatio="xMidYMid meet">

<g transform="translate(0.000000,1280.000000) scale(0.100000,-0.100000)"
fill="#000000" stroke="none">
<path d="M367 9463 c-4 -3 -7 -1227 -7 -2720 l0 -2713 875 0 875 0 -2 2718 -3
2717 -866 3 c-476 1 -869 -1 -872 -5z"/>
<path d="M3997 9408 c-29 -35 -259 -310 -510 -611 l-457 -549 0 -1125 c0 -948
2 -1124 14 -1114 11 9 120 -177 577 -984 l564 -994 1033 -1 1033 0 -34 53
c-18 28 -466 748 -996 1599 l-963 1548 125 142 c68 79 505 579 970 1112 466
533 847 973 847 978 0 4 -483 8 -1074 8 l-1074 0 -55 -62z"/>
<path d="M8421 9452 c-5 -10 -450 -1226 -989 -2702 -539 -1477 -983 -2693
-987 -2702 -7 -17 39 -18 887 -18 l893 0 803 2708 c441 1489 803 2713 802
2720 0 9 -147 12 -700 12 -660 0 -700 -1 -709 -18z"/>
<path d="M10241 7722 l-372 -1268 60 -211 c34 -117 61 -217 61 -222 0 -7 -45
-11 -128 -11 l-128 0 -181 -602 c-99 -332 -178 -606 -176 -610 2 -5 224 -8
493 -8 l489 0 22 -72 c13 -40 64 -210 114 -378 l91 -305 926 -3 925 -2 -148
407 c-82 225 -490 1341 -906 2480 -416 1140 -760 2073 -763 2073 -3 0 -173
-571 -379 -1268z"/>
</g>
</svg>
